<?xml version="1.0" encoding="UTF-8" standalone="no"?>
<svg
   viewBox="0 0 100 125"
   width="64"
   height="64"
   version="1.1"
   id="svg32"
   sodipodi:docname="d12deva.svg"
   inkscape:version="1.2.1 (9c6d41e410, 2022-07-14)"
   xmlns:inkscape="http://www.inkscape.org/namespaces/inkscape"
   xmlns:sodipodi="http://sodipodi.sourceforge.net/DTD/sodipodi-0.dtd"
   xmlns="http://www.w3.org/2000/svg"
   xmlns:svg="http://www.w3.org/2000/svg">
  <defs
     id="defs36" />
  <sodipodi:namedview
     id="namedview34"
     pagecolor="#505050"
     bordercolor="#eeeeee"
     borderopacity="1"
     inkscape:showpageshadow="0"
     inkscape:pageopacity="0"
     inkscape:pagecheckerboard="0"
     inkscape:deskcolor="#505050"
     showgrid="false"
     inkscape:zoom="13.078125"
     inkscape:cx="32.114695"
     inkscape:cy="32.114695"
     inkscape:window-width="1920"
     inkscape:window-height="1017"
     inkscape:window-x="-8"
     inkscape:window-y="-8"
     inkscape:window-maximized="1"
     inkscape:current-layer="svg32" />
  <path
     fill="#000000"
     d="M34.449,72.826L23.851,41.064l26.853-21.056l27.455,21.056  l-10.2,32.344L34.449,72.826z"
     id="path20"
     style="fill:#f2f2f2" />
  <path
     fill="#000000"
     d="M2.878,34.373L3.77,66.281l17.192,23.602l12.24-15.092  l-11.28-34.152L2.878,34.373z"
     id="path22"
     style="fill:#f2f2f2" />
  <path
     fill="#000000"
     d="M67.664,75.568l-33.525-0.201L23.358,90.52l27.099,8.449  l27.684-8.83L67.664,75.568z"
     id="path24"
     style="fill:#f2f2f2" />
  <path
     fill="#000000"
     d="M4.499,33.375L21.4,10.646l27.974-9.616v16.901L22.35,39.216  L4.499,33.375z"
     id="path26"
     style="fill:#f2f2f2" />
  <path
     fill="#000000"
     d="M52.702,1.047l27.682,9.325l16.153,23.325l-17.028,5.967  l-27.1-21.423L52.702,1.047z"
     id="path28"
     style="fill:#f2f2f2" />
  <path
     fill="#000000"
     d="M69.944,74.227l10.415-31.761l16.762-5.829l-0.076,28.558  L80.436,88.506L69.944,74.227z"
     id="path30"
     style="fill:#f2f2f2" />
</svg>
