<!DOCTYPE svg PUBLIC "-//W3C//DTD SVG 1.1//EN" "http://www.w3.org/Graphics/SVG/1.1/DTD/svg11.dtd">
<!-- Uploaded to: SVG Repo, www.svgrepo.com, Transformed by: SVG Repo Mixer Tools -->
<svg fill="#1f546f" width="800px" height="800px" viewBox="0 0 32 32" version="1.1" xmlns="http://www.w3.org/2000/svg">
<g id="SVGRepo_bgCarrier" stroke-width="0"/>
<g id="SVGRepo_tracerCarrier" stroke-linecap="round" stroke-linejoin="round"/>
<g id="SVGRepo_iconCarrier"> <title>aquarius</title> <path d="M9.027 10.772l-6.778 4.784v-5.349l8.812-5.827 2.194 4.252 5.545-4.333 2.253 4.249 5.558-4.152 2.989 4.437-0.079 7.035-4.241-4.901-5.825 4.249-2.163-4.324-5.804 4.061-2.462-4.18zM9.027 22.885l-6.778 4.785v-5.349l8.812-5.827 2.194 4.251 5.545-4.332 2.253 4.249 5.558-4.152 2.989 4.438-0.079 7.035-4.241-4.901-5.825 4.249-2.163-4.324-5.804 4.061-2.462-4.181z"/> </g>
</svg>